<mxfile host="app.diagrams.net" agent="Mozilla/5.0 (Macintosh; Intel Mac OS X 10_15_7) AppleWebKit/537.36 (KHTML, like Gecko) Chrome/126.0.0.0 Whale/3.27.254.15 Safari/537.36" version="24.7.17">
  <diagram name="페이지-1" id="T4R7CVDCbGJPmYWIlDv3">
    <mxGraphModel dx="524" dy="995" grid="1" gridSize="10" guides="1" tooltips="1" connect="1" arrows="1" fold="1" page="1" pageScale="1" pageWidth="1169" pageHeight="827" math="0" shadow="0">
      <root>
        <mxCell id="0" />
        <mxCell id="1" parent="0" />
        <mxCell id="j4RkCBAJs_kXyYxZWz-E-2" value="" style="rounded=0;whiteSpace=wrap;html=1;" parent="1" vertex="1">
          <mxGeometry x="270" y="130" width="310" height="130" as="geometry" />
        </mxCell>
        <mxCell id="P3QJHR4uhhpoOYzqD0NU-4" style="edgeStyle=orthogonalEdgeStyle;rounded=0;orthogonalLoop=1;jettySize=auto;html=1;entryX=0;entryY=0.5;entryDx=0;entryDy=0;" edge="1" parent="1" source="j4RkCBAJs_kXyYxZWz-E-1" target="P3QJHR4uhhpoOYzqD0NU-3">
          <mxGeometry relative="1" as="geometry" />
        </mxCell>
        <mxCell id="j4RkCBAJs_kXyYxZWz-E-1" value="Kafka Producer" style="rounded=1;whiteSpace=wrap;html=1;" parent="1" vertex="1">
          <mxGeometry x="440" y="180" width="120" height="60" as="geometry" />
        </mxCell>
        <mxCell id="j4RkCBAJs_kXyYxZWz-E-4" value="Spring Boot Application" style="text;html=1;align=center;verticalAlign=middle;whiteSpace=wrap;rounded=0;" parent="1" vertex="1">
          <mxGeometry x="360" y="130" width="130" height="30" as="geometry" />
        </mxCell>
        <mxCell id="EWFrGeO1j-YZ3v8a08BG-1" value="Kafka Consumer" style="rounded=1;whiteSpace=wrap;html=1;" parent="1" vertex="1">
          <mxGeometry x="290" y="180" width="120" height="60" as="geometry" />
        </mxCell>
        <mxCell id="P3QJHR4uhhpoOYzqD0NU-2" style="edgeStyle=orthogonalEdgeStyle;rounded=0;orthogonalLoop=1;jettySize=auto;html=1;entryX=0;entryY=0.5;entryDx=0;entryDy=0;" edge="1" parent="1" source="P3QJHR4uhhpoOYzqD0NU-1" target="EWFrGeO1j-YZ3v8a08BG-1">
          <mxGeometry relative="1" as="geometry" />
        </mxCell>
        <mxCell id="P3QJHR4uhhpoOYzqD0NU-1" value="Inbound Topic" style="rounded=1;whiteSpace=wrap;html=1;" vertex="1" parent="1">
          <mxGeometry x="80" y="180" width="120" height="60" as="geometry" />
        </mxCell>
        <mxCell id="P3QJHR4uhhpoOYzqD0NU-3" value="Outbound Topic" style="rounded=1;whiteSpace=wrap;html=1;" vertex="1" parent="1">
          <mxGeometry x="660" y="180" width="120" height="60" as="geometry" />
        </mxCell>
      </root>
    </mxGraphModel>
  </diagram>
</mxfile>
